HIERARCHY
ROOT Hips
{
    OFFSET   0.000000   0.000000   0.000000
    CHANNELS 6 Xposition Yposition Zposition Zrotation Xrotation Yrotation
    JOINT Chest
    {
        OFFSET   0.000000   8.007230   0.000000
        CHANNELS 3 Zrotation Xrotation Yrotation
        JOINT Chest2
        {
            OFFSET   0.000000  22.077100   0.000000
            CHANNELS 3 Zrotation Xrotation Yrotation
            JOINT Neck
            {
                OFFSET   0.000000  23.255100   0.000000
                CHANNELS 3 Zrotation Xrotation Yrotation
                JOINT Head
                {
                    OFFSET   0.000000  14.370100   1.956600
                    CHANNELS 3 Zrotation Xrotation Yrotation
                    End Site
                    {
                        OFFSET   0.000000  19.566000   0.000000
                    }
                }
            }
            JOINT LeftCollar
            {
                OFFSET   3.911900  19.017000  -0.467063
                CHANNELS 3 Zrotation Xrotation Yrotation
                JOINT LeftShoulder
                {
                    OFFSET  10.383700   0.000000   0.000000
                    CHANNELS 3 Zrotation Xrotation Yrotation
                    JOINT LeftElbow
                    {
                        OFFSET  26.662100   0.001193   0.000980
                        CHANNELS 3 Zrotation Xrotation Yrotation
                        JOINT LeftWrist
                        {
                            OFFSET  28.869000  -0.000059  -0.000082
                            CHANNELS 3 Zrotation Xrotation Yrotation
                            JOINT LeftFinger0
                            {
                                OFFSET   2.044650  -2.323450   3.252850
                                CHANNELS 3 Zrotation Xrotation Yrotation
                                JOINT LeftFinger01
                                {
                                    OFFSET   3.088130   0.000000   0.000000
                                    CHANNELS 3 Zrotation Xrotation Yrotation
                                    JOINT LeftFinger02
                                    {
                                        OFFSET   2.639460   0.000000   0.000000
                                        CHANNELS 3 Zrotation Xrotation Yrotation
                                        End Site
                                        {
                                            OFFSET   2.582190   0.000000   0.000000
                                        }
                                    }
                                }
                            }
                            JOINT LeftFinger1
                            {
                                OFFSET   8.364480   0.000000   3.252850
                                CHANNELS 3 Zrotation Xrotation Yrotation
                                JOINT LeftFinger11
                                {
                                    OFFSET   4.646930   0.000000   0.000000
                                    CHANNELS 3 Zrotation Xrotation Yrotation
                                    JOINT LeftFinger12
                                    {
                                        OFFSET   2.323470   0.000000   0.000000
                                        CHANNELS 3 Zrotation Xrotation Yrotation
                                        End Site
                                        {
                                            OFFSET   2.273050   0.000000   0.000000
                                        }
                                    }
                                }
                            }
                            JOINT LeftFinger2
                            {
                                OFFSET   8.364490   0.000016   1.078090
                                CHANNELS 3 Zrotation Xrotation Yrotation
                                JOINT LeftFinger21
                                {
                                    OFFSET   5.111610   0.000000   0.000000
                                    CHANNELS 3 Zrotation Xrotation Yrotation
                                    JOINT LeftFinger22
                                    {
                                        OFFSET   2.788150   0.000016   0.000000
                                        CHANNELS 3 Zrotation Xrotation Yrotation
                                        End Site
                                        {
                                            OFFSET   2.727660   0.000000   0.000000
                                        }
                                    }
                                }
                            }
                            JOINT LeftFinger3
                            {
                                OFFSET   7.899780   0.000015  -1.078090
                                CHANNELS 3 Zrotation Xrotation Yrotation
                                JOINT LeftFinger31
                                {
                                    OFFSET   4.646930   0.000000   0.000000
                                    CHANNELS 3 Zrotation Xrotation Yrotation
                                    JOINT LeftFinger32
                                    {
                                        OFFSET   2.323470   0.000000   0.000000
                                        CHANNELS 3 Zrotation Xrotation Yrotation
                                        End Site
                                        {
                                            OFFSET   2.273050   0.000000   0.000000
                                        }
                                    }
                                }
                            }
                            JOINT LeftFinger4
                            {
                                OFFSET   7.435090   0.000000  -3.252850
                                CHANNELS 3 Zrotation Xrotation Yrotation
                                JOINT LeftFinger41
                                {
                                    OFFSET   3.717550   0.000000   0.000000
                                    CHANNELS 3 Zrotation Xrotation Yrotation
                                    JOINT LeftFinger42
                                    {
                                        OFFSET   1.858770   0.000000   0.000000
                                        CHANNELS 3 Zrotation Xrotation Yrotation
                                        End Site
                                        {
                                            OFFSET   1.818440   0.000000   0.000000
                                        }
                                    }
                                }
                            }
                        }
                    }
                }
            }
            JOINT RightCollar
            {
                OFFSET  -3.911910  19.017000  -0.467062
                CHANNELS 3 Zrotation Xrotation Yrotation
                JOINT RightShoulder
                {
                    OFFSET -10.383700   0.000014   0.000000
                    CHANNELS 3 Zrotation Xrotation Yrotation
                    JOINT RightElbow
                    {
                        OFFSET -26.662100   0.001225   0.001091
                        CHANNELS 3 Zrotation Xrotation Yrotation
                        JOINT RightWrist
                        {
                            OFFSET -28.869000  -0.000020  -0.000085
                            CHANNELS 3 Zrotation Xrotation Yrotation
                            JOINT RightFinger0
                            {
                                OFFSET  -2.044650  -2.323490   3.252850
                                CHANNELS 3 Zrotation Xrotation Yrotation
                                JOINT RightFinger01
                                {
                                    OFFSET  -3.088130   0.000000   0.000000
                                    CHANNELS 3 Zrotation Xrotation Yrotation
                                    JOINT RightFinger02
                                    {
                                        OFFSET  -2.639460   0.000000   0.000000
                                        CHANNELS 3 Zrotation Xrotation Yrotation
                                        End Site
                                        {
                                            OFFSET  -2.582190   0.000000   0.000000
                                        }
                                    }
                                }
                            }
                            JOINT RightFinger1
                            {
                                OFFSET  -8.364480   0.000000   3.252850
                                CHANNELS 3 Zrotation Xrotation Yrotation
                                JOINT RightFinger11
                                {
                                    OFFSET  -4.646930   0.000000   0.000000
                                    CHANNELS 3 Zrotation Xrotation Yrotation
                                    JOINT RightFinger12
                                    {
                                        OFFSET  -2.323470   0.000000   0.000000
                                        CHANNELS 3 Zrotation Xrotation Yrotation
                                        End Site
                                        {
                                            OFFSET  -2.273050   0.000000   0.000000
                                        }
                                    }
                                }
                            }
                            JOINT RightFinger2
                            {
                                OFFSET  -8.364480   0.000000   1.078090
                                CHANNELS 3 Zrotation Xrotation Yrotation
                                JOINT RightFinger21
                                {
                                    OFFSET  -5.111620   0.000000   0.000000
                                    CHANNELS 3 Zrotation Xrotation Yrotation
                                    JOINT RightFinger22
                                    {
                                        OFFSET  -2.788160   0.000000   0.000000
                                        CHANNELS 3 Zrotation Xrotation Yrotation
                                        End Site
                                        {
                                            OFFSET  -2.727660   0.000000   0.000000
                                        }
                                    }
                                }
                            }
                            JOINT RightFinger3
                            {
                                OFFSET  -7.899780   0.000000  -1.078090
                                CHANNELS 3 Zrotation Xrotation Yrotation
                                JOINT RightFinger31
                                {
                                    OFFSET  -4.646930   0.000000   0.000000
                                    CHANNELS 3 Zrotation Xrotation Yrotation
                                    JOINT RightFinger32
                                    {
                                        OFFSET  -2.323470   0.000000   0.000000
                                        CHANNELS 3 Zrotation Xrotation Yrotation
                                        End Site
                                        {
                                            OFFSET  -2.273050   0.000000   0.000000
                                        }
                                    }
                                }
                            }
                            JOINT RightFinger4
                            {
                                OFFSET  -7.435090   0.000000  -3.252850
                                CHANNELS 3 Zrotation Xrotation Yrotation
                                JOINT RightFinger41
                                {
                                    OFFSET  -3.717550   0.000000   0.000000
                                    CHANNELS 3 Zrotation Xrotation Yrotation
                                    JOINT RightFinger42
                                    {
                                        OFFSET  -1.858760   0.000000   0.000000
                                        CHANNELS 3 Zrotation Xrotation Yrotation
                                        End Site
                                        {
                                            OFFSET  -1.818440   0.000000   0.000000
                                        }
                                    }
                                }
                            }
                        }
                    }
                }
            }
        }
    }
    JOINT LeftHip
    {
        OFFSET   9.783030   0.000000   0.000000
        CHANNELS 3 Zrotation Xrotation Yrotation
        JOINT LeftKnee
        {
            OFFSET   0.000063 -41.789100   0.000608
            CHANNELS 3 Zrotation Xrotation Yrotation
            JOINT LeftAnkle
            {
                OFFSET   0.000048 -41.133200  -0.000184
                CHANNELS 3 Zrotation Xrotation Yrotation
                JOINT LeftToe
                {
                    OFFSET   0.000000  -6.358960  14.674500
                    CHANNELS 3 Zrotation Xrotation Yrotation
                    End Site
                    {
                        OFFSET   0.000000   0.000000   3.913200
                    }
                }
            }
        }
    }
    JOINT RightHip
    {
        OFFSET  -9.783030   0.000000   0.000000
        CHANNELS 3 Zrotation Xrotation Yrotation
        JOINT RightKnee
        {
            OFFSET   0.000071 -41.789100   0.001239
            CHANNELS 3 Zrotation Xrotation Yrotation
            JOINT RightAnkle
            {
                OFFSET   0.000037 -41.133200  -0.000166
                CHANNELS 3 Zrotation Xrotation Yrotation
                JOINT RightToe
                {
                    OFFSET   0.000000  -6.358960  14.674500
                    CHANNELS 3 Zrotation Xrotation Yrotation
                    End Site
                    {
                        OFFSET   0.000000   0.000000   3.913200
                    }
                }
            }
        }
    }
}
MOTION
Frames: 4
Frame Time:   0.016667
  3.015140  89.311600  -1.793920  -5.145910 -21.737500  -2.784890  -0.299950  14.808400   5.594010  -2.272240  29.507900  11.899200   2.336610  -2.339130   0.096281   3.856740  -4.719380  -6.002940  -6.018460 -10.563800   1.045000 -62.752400  33.708800 -11.336700  -1.889310  -6.084170 -20.700300  15.743100 -12.463300   5.939280  35.782100  29.254300 -59.324900 -34.665100   0.001302   0.000997 -12.332500   0.000304  -0.001415 -31.186200   4.928560  -8.078410 -25.800500   0.003848  -0.002353 -18.060300   0.005314  -0.001967 -28.770900   1.368380  -2.490370 -42.934600  -0.001896   0.002575 -28.594500  -0.002836   0.002413 -28.633100   1.201510  -2.199480 -38.247800  -0.003568   0.001349 -25.473000  -0.002538   0.002918 -33.069400   0.664878  -1.020810 -49.613300  -0.004062   0.000612 -33.042400  -0.002159  -0.003098   9.812860  -7.214770  15.699500  43.248300  16.244900  53.822300 -27.224400  -7.243370  34.741100 -11.926500 -44.820200   8.583140 -54.251800  30.905100  49.509700  -9.161630  -0.001236  -0.000153  -9.580820  -0.006622   0.001827  15.589200   3.295210  11.642600  13.029800   0.003323   0.000947   9.120830   0.004386  -0.000491  19.910500   2.151580   5.919110  20.021700   0.009068   0.003976  13.334400   0.010323   0.001349  11.096000   0.502075   2.560090  11.106900  -0.000278   0.000727   7.397170   0.000105   0.003629  17.107600   0.671583   2.182520  25.679600  -0.001016   0.002143  17.102600   0.000722  -0.004307   2.229330  23.042200   7.708930   0.205261   0.085130   4.728590  -0.726054  -2.279370  -1.112130  -0.000000   0.000000  -0.000000   4.355660  18.546900  -0.041954  -3.211030  10.699800 -11.026900   2.413320  -6.770460   0.785263   0.000000   0.000000   0.000000
  3.024200  89.318700  -1.745040  -5.208490 -21.670100  -2.948570  -0.276302  14.754200   5.557180  -2.203930  29.403600  11.809200   2.300250  -2.349930   0.095321   3.796960  -4.741930  -5.891250  -6.016000 -10.517600   1.068300 -62.850100  33.523700 -11.099700  -1.926700  -6.362020 -20.641400  15.717400 -13.292100   6.109110  35.872200  29.486500 -59.623500 -34.634500   0.001374   0.001013 -12.317200   0.000342  -0.001441 -31.245900   4.977380  -8.134190 -25.855000   0.003834  -0.002332 -18.098500   0.005358  -0.001928 -28.770400   1.386480  -2.523320 -43.054100  -0.001897   0.002575 -28.674100  -0.002837   0.002380 -28.640400   1.222240  -2.236340 -38.390800  -0.003569   0.001348 -25.568200  -0.002536   0.002958 -33.148200   0.648497  -0.992772 -49.730900  -0.004063   0.000633 -33.120700  -0.002158  -0.003048   9.836990  -7.214280  15.697900  43.375800  16.233600  53.749400 -27.388700  -6.932580  34.992900 -11.897100 -44.686000   8.597160 -54.183400  30.822800  49.376700  -9.081420  -0.001519  -0.000189  -9.540730  -0.007144   0.001857  15.704800   3.319480  11.629600  13.125900   0.003727   0.000903   9.188090   0.004441  -0.000767  20.028700   2.151500   5.877960  20.138800   0.009430   0.004114  13.412400   0.010061   0.001338  11.242800   0.497939   2.510510  11.253100  -0.000231   0.000653   7.494560   0.000272   0.004165  17.272900   0.641578   2.066560  25.925700  -0.000578   0.001973  17.266500   0.000652  -0.004517   2.226630  23.066600   7.710940   0.185873   0.042193   4.821810  -0.706720  -2.336000  -1.053100  -0.000000   0.000000  -0.000000   4.349170  18.545100  -0.018810  -3.212200  10.634000 -10.964200   2.434670  -6.763290   0.860821   0.000000   0.000000  -0.000000
  3.025500  89.325900  -1.691670  -5.281000 -21.593600  -3.120300  -0.251490  14.689000   5.520870  -2.131910  29.277400  11.719100   2.273650  -2.365610   0.094683   3.753180  -4.774010  -5.799060  -6.020150 -10.447000   1.076670 -62.924600  33.365500 -10.908300  -1.962850  -6.596390 -20.578200  15.673500 -13.961400   6.247670  36.007800  29.806100 -59.981000 -34.597400   0.001447   0.001030 -12.298700   0.000379  -0.001469 -31.268000   5.035080  -8.224240 -25.878900   0.003821  -0.002313 -18.115300   0.005402  -0.001890 -28.768100   1.427730  -2.598460 -43.096600  -0.001897   0.002575 -28.702400  -0.002837   0.002349 -28.642800   1.265370  -2.315330 -38.455200  -0.003570   0.001347 -25.611100  -0.002534   0.002997 -33.182700   0.641298  -0.980527 -49.782300  -0.004063   0.000654 -33.155000  -0.002157  -0.002998   9.863160  -7.210810  15.687100  43.577100  16.248300  53.604800 -27.617200  -6.492010  35.424000 -11.788800 -44.544800   8.652390 -54.115500  30.740000  49.244000  -8.961070  -0.001820  -0.000225  -9.480560  -0.007669   0.001879  15.836300   3.341120  11.611100  13.235000   0.004142   0.000862   9.264480   0.004501  -0.001057  20.167000   2.151420   5.836810  20.276700   0.009799   0.004244  13.504300   0.009812   0.001316  11.420600   0.483903   2.395080  11.429900  -0.000171   0.000594   7.612270   0.000489   0.004692  17.458600   0.585716   1.862360  26.200500  -0.000135   0.001785  17.449500   0.000625  -0.004741   2.227020  23.090800   7.716580   0.179648  -0.000731   4.911850  -0.681895  -2.399160  -0.994388   0.000000   0.000000   0.000000   4.346330  18.532300   0.009319  -3.217970  10.585600 -10.905300   2.447070  -6.760790   0.937376   0.000000   0.000000   0.000000
  3.020300  89.332300  -1.635840  -5.364140 -21.505000  -3.297120  -0.224848  14.606600   5.488810  -2.059700  29.116800  11.636200   2.259720  -2.374360   0.093994   3.730250  -4.791680  -5.739880  -6.034140 -10.344400   1.065660 -63.008800  33.203200 -10.768400  -1.972630  -6.713800 -20.485500  15.625600 -14.335600   6.336610  36.167000  30.162600 -60.332100 -34.549900   0.001520   0.001089 -12.275000   0.000409  -0.001507 -31.254600   5.095530  -8.324400 -25.875500   0.003807  -0.002300 -18.112800   0.005443  -0.001852 -28.765000   1.486950  -2.706410 -43.039200  -0.001895   0.002575 -28.664200  -0.002834   0.002317 -28.640300   1.323660  -2.422200 -38.431600  -0.003572   0.001347 -25.595400  -0.002535   0.003037 -33.161700   0.645685  -0.988045 -49.750900  -0.004064   0.000674 -33.134100  -0.002156  -0.002949   9.865270  -7.161690  15.625500  43.766400  16.321500  53.430600 -27.743800  -6.280890  35.812000 -11.623700 -44.351800   8.727020 -54.206100  30.851000  49.421600  -8.747290  -0.001966  -0.000238  -9.373670  -0.008192   0.001890  15.937300   3.362480  11.607200  13.319200   0.004559   0.000815   9.323430   0.004578  -0.001358  20.296300   2.166950   5.846800  20.407000   0.010213   0.004374  13.591000   0.009570   0.001294  11.586200   0.458047   2.237060  11.594300  -0.000132   0.000553   7.721740   0.000628   0.005199  17.599200   0.528380   1.666340  26.409400   0.000088   0.001577  17.588700   0.000634  -0.004992   2.236730  23.057000   7.738160   0.186137   0.045280   4.972330  -0.656320  -2.509240  -0.916670   0.000000   0.000000   0.000000   4.372050  18.490900   0.038852  -3.230280  10.558300 -10.853600   2.442790  -6.761960   1.017040  -0.000000   0.000000   0.000000
